<?xml version="1.0" encoding="UTF-8"?> <svg xmlns="http://www.w3.org/2000/svg" id="Square" viewBox="0 0 295.7 143.55"><defs><style> .cls-1 { fill: #4d89f9; } </style></defs><g id="Nagios_Logo" data-name="Nagios Logo"><g><g><path class="cls-1" d="M85.53,59.14c-.1.03-.18.08-.3.13.03.43.05.86.05,1.29.13,2.68.3,5.36.18,8.05-.03.84-.13,1.64-.25,2.48-.2,1.42-.2,2.83-.1,4.25.1,1.54.25,3.11.38,4.66.05.86-.05,1.72-.28,2.56-.43,1.75-1.85,2.83-3.67,2.88-.76.03-1.52-.13-2.25-.25-1.04-.18-2.05-.3-3.09-.51-1.54-.3-2.76-1.14-3.72-2.38-1.06-1.39-2-2.88-2.86-4.43-1.24-2.23-2.71-4.33-4.43-6.2-.56-.61-.99-1.32-1.44-2.02-.51-.76-.94-1.54-1.42-2.3-.38-.63-1.04-.84-1.57-.51-.3.18-.48.51-.53.84-.08.43-.13.89-.15,1.34-.1,2.07-.2,4.15-.28,6.22,0,.33,0,.66.05.96.15,1.19.03,2.33-.43,3.44,0,0,0,.03-.03.05-.46.86-.4,1.75.05,2.58.05.08.08.15.1.23.38,1.01,0,1.87-1.01,2.23-.96.35-1.97.56-3.01.63-1.34.08-2.61-.15-3.82-.71-.91-.43-1.59-1.06-1.85-2.07-.08-.3-.13-.63-.13-.96.03-2.05-.13-4.07-.25-6.1-.08-1.34.3-2.48,1.21-3.47.38-.43.76-.86,1.09-1.34.18-.25.3-.56.4-.86.23-.63.13-1.24-.33-1.8-1.14-1.39-1.87-2.99-2.2-4.73-.25-1.32-.28-2.66-.23-4,.05-1.57.1-3.16.15-4.71.03-1.11.08-2.23.13-3.34.03-.38.08-.76.18-1.11.23-.76.84-1.19,1.59-1.09,1.37.18,2.66-.03,3.97-.4.46-.13.91-.28,1.37-.43.46-.13.94-.23,1.42-.18.86.08,1.52.51,1.97,1.21.23.33.38.68.53,1.06.18.43.33.86.51,1.29.38.94,1.01,1.62,1.95,2,.76.3,1.34.81,1.8,1.47,2.05,2.94,4.07,5.87,6.12,8.81.58.84,1.24,1.64,1.97,2.35.18.18.38.3.58.43.28.15.53.05.68-.23.08-.15.13-.35.15-.53.1-1.27.2-2.56.28-3.82.03-.56,0-1.09-.05-1.64-.18-2.18-.13-4.33,0-6.48.05-.94.13-1.87.18-2.81,0-.2.05-.38.08-.58.25-1.06.94-1.72,2.02-1.87.3-.05.63-.08.96-.05,1.09.03,2.18.03,3.24.13,1.97.2,3.34,1.49,3.64,3.47.2,1.29.3,2.61.43,3.9.1.91.15,1.82.23,2.73,0,.05,0,.18.03.25h0Z"></path><path class="cls-1" d="M57.89,94.79c-1.54,0-3.06.03-4.61,0-1.19-.03-2.38-.1-3.59-.18-.33-.03-.68-.1-.99-.23-.68-.25-.99-.89-.81-1.59.28-1.19,1.04-1.97,2.1-2.48.86-.43,1.8-.56,2.76-.48,2.81.28,5.62.43,8.43.4,2.83-.03,5.64-.23,8.48-.56.71-.08,1.44-.05,2.15,0,2.53.18,5.09.38,7.62.56,1.09.08,2.18.13,3.24.25.51.05,1.04.18,1.49.38,1.24.51,1.54,1.85.68,2.88-.68.84-1.54,1.24-2.66,1.27-2.1.05-4.2-.15-6.28-.3-1.47-.1-2.94-.33-4.43-.28-1.29.05-2.56.1-3.85.23-2.56.23-5.11.35-7.69.25-.71-.03-1.42-.05-2.1-.08.03-.03.03-.05.05-.05h0Z"></path></g><path class="cls-1" d="M92.54,77.89v-2.02c.03-1.32.43-2.48,1.42-3.42.73-.71,1.62-1.09,2.63-1.24.61-.1,1.21-.03,1.8.05,1.34.15,2.66.1,3.9-.46.48-.23.94-.46,1.34-.78.84-.66,1.77-.96,2.78-1.06,1.27-.13,2.53-.28,3.75-.58.63-.15,1.24-.4,1.7-.89.94-.96,1.11-2.48.4-3.62-.38-.61-.89-.89-1.59-.81-1.59.15-3.16.3-4.71.73-1.52.46-2.83,1.21-3.87,2.43-.3.35-.66.51-1.11.46-1.75-.13-3.49-.15-5.21-.43-.71-.1-1.34-.33-1.82-.89-.81-.94-.86-2.4-.1-3.42.23-.3.53-.61.84-.81,1.44-.99,2.96-1.85,4.61-2.43,2.02-.73,4.07-.94,6.2-.48,1.11.25,2.28.2,3.42.05.68-.08,1.37-.2,2.05-.3,1.52-.2,2.99.05,4.38.66,2.18.96,3.9,2.45,4.98,4.61.76,1.49.94,3.01.53,4.63-.15.66-.3,1.32-.38,1.97-.18,1.14-.03,2.25.48,3.29.43.94.48,1.9.35,2.88-.1.81-.23,1.59-.25,2.38-.05.78.08,1.57.28,2.35.1.38.18.81.15,1.21-.05,1.16-.94,2.15-2.13,2.43-.25.05-.53.1-.78.1-1.32.03-2.66.05-3.97.05-.99,0-1.82-.3-2.45-1.11-.48-.58-1.24-.76-1.9-.18-.73.63-1.62.96-2.56,1.11-1.82.3-3.62.73-5.42,1.14-2.61.58-5.04.13-7.31-1.24-1.52-.91-2.25-2.3-2.35-4.05-.05-.76,0-1.54,0-2.33t-.05,0h0ZM105.11,80.14c.66,0,1.34-.03,1.97-.3,1.42-.61,2.83-1.24,4.25-1.87.43-.18.86-.4,1.29-.63.81-.46,1.01-1.32.48-2.07-.18-.23-.38-.43-.63-.61-.38-.25-.73-.53-1.01-.86-.35-.4-.81-.58-1.34-.61-.25,0-.51,0-.76.03-1.47.13-2.94.28-4.4.4-.76.05-1.44.35-2.05.78-.18.13-.35.3-.46.48-.48.78-.73,1.62-.63,2.53.18,1.54,1.01,2.4,2.4,2.66.28,0,.58.03.89.08h0Z"></path><path class="cls-1" d="M136.69,95.7c-.38-.05-.76-.1-1.16-.18-3.09-.53-5.36-2.15-6.68-5.04-.23-.51-.38-1.04-.38-1.59-.05-1.67,1.27-2.68,2.83-2.45.78.13,1.52.38,2.23.76.99.53,2,.86,3.09,1.06,1.37.25,2.66.71,3.92,1.27.91.4,1.85.61,2.83.43,1.92-.33,3.16-1.47,3.69-3.34.3-1.04.28-2.1.23-3.19,0-.2-.03-.43-.05-.63-.03-.18-.05-.38-.13-.58-.18-.46-.51-.66-.99-.61-.2.03-.43.08-.61.15-.86.38-1.72.76-2.56,1.21-1.06.56-2.13.94-3.31,1.04-2.73.25-5.72-.94-7.26-3.92-.25-.51-.43-1.04-.66-1.54-.25-.58-.48-1.21-.81-1.77-.25-.46-.61-.89-.99-1.24-.56-.53-.84-1.16-.86-1.9-.03-1.11-.05-2.25-.05-3.37s.03-2.23-.05-3.34c-.08-1.62.33-3.09.96-4.53.94-2.18,2.53-3.54,4.78-4.2,2.66-.78,5.29-.86,7.92.13.96.35,1.85.86,2.68,1.42.3.2.58.38.91.56.43.23.86.18,1.27-.15.18-.15.35-.3.53-.48s.33-.35.51-.51c.61-.58,1.32-.89,2.18-.91,1.11-.03,2.23,0,3.34.15,2.07.28,3.47,1.8,3.54,3.9.03.61-.1,1.24-.35,1.8-.71,1.67-.99,3.42-.94,5.24.03,1.32.23,2.63.4,3.95.1.68.13,1.34.2,2.02.15,1.32.3,2.66.48,3.97.3,2.07.46,4.15.28,6.25-.1,1.06-.18,2.1-.66,3.09-1.37,2.78-3.39,4.96-6.22,6.3-.43.2-.91.3-1.39.33h-.33c-.71.05-1.37-.1-2-.38-1.62-.66-3.26-.71-4.91-.18-1.44.46-2.91.81-4.45.91-.05,0-.08.03-.1.05h-.84l-.08.05ZM147.42,71.43c0-1.09-.18-2.13-.53-3.14-.43-1.19-1.06-2.2-2.1-2.94-.86-.61-1.8-.86-2.83-.68-.91.15-1.67.58-2.3,1.21-1.42,1.37-1.95,3.09-1.87,4.98.05,1.09.28,2.18.53,3.24.3,1.34,1.14,2.28,2.45,2.73,2.51.89,5.29-.38,6.25-2.86.3-.81.43-1.67.4-2.56Z"></path><g><path class="cls-1" d="M174.67,64.37c0,.76.03,1.54,0,2.3-.03.73-.18,1.49-.43,2.18s-.28,1.34-.13,2.02c.53,2.23.71,4.5.73,6.78,0,1.29.03,2.56.03,3.85,0,.61-.08,1.19-.35,1.72-.58,1.21-1.62,1.8-2.91,1.97-.81.13-1.59,0-2.4-.13-.33-.05-.68-.1-.99-.18-.96-.23-1.72-.76-2.25-1.59-.86-1.34-1.32-2.83-1.37-4.43-.03-.94.18-1.85.66-2.66.76-1.29.89-2.66.63-4.07-.15-.86-.38-1.7-.51-2.56-.3-2.18-.61-4.38-.86-6.58-.1-.89.05-1.77.33-2.61.43-1.32,1.42-1.97,2.76-2.05,1.16-.05,2.33-.03,3.52,0,.35,0,.73.1,1.06.2,1.37.4,2.1,1.37,2.35,2.71.08.38.1.78.1,1.19.03.66,0,1.32.03,1.92h0Z"></path><path class="cls-1" d="M170.02,47.9c.43.03.99.08,1.57.08,1.19,0,2.02.76,2.28,1.92.25,1.19.1,2.33-.35,3.42-.33.81-.99,1.24-1.85,1.32-1.24.1-2.48.15-3.69-.08-.4-.08-.84-.18-1.21-.33-.91-.33-1.42-1.01-1.57-1.97-.13-.96-.05-1.87.4-2.76.56-1.04,1.39-1.59,2.58-1.64.56,0,1.14.03,1.85.05h0Z"></path></g><path class="cls-1" d="M211.92,71.41c0,2.3-.56,4.5-1.49,6.63-.48,1.06-.96,2.13-1.77,3.01-.91,1.01-2.02,1.75-3.29,2.2-.71.25-1.42.28-2.18.1-.28-.05-.56-.13-.84-.15-1.01-.13-1.87.2-2.58.96-.73.81-1.67,1.11-2.73,1.01-.63-.05-1.29-.23-1.92-.28-1.09-.1-2.18-.18-3.29-.25-.76-.05-1.54-.1-2.3-.35-.46-.15-.94-.35-1.34-.61-1.7-1.11-3.29-2.35-4.88-3.62-.58-.46-.89-1.04-.94-1.8-.1-1.8-.53-3.54-1.04-5.29-.15-.48-.28-.94-.46-1.39-.3-.84-.38-1.7-.18-2.56.28-1.34.73-2.63,1.47-3.8.28-.46.68-.76,1.19-.91,1.37-.38,2.35-1.24,3.09-2.4.33-.53.66-1.06.99-1.57.81-1.24,1.92-1.77,3.42-1.57,1.72.25,3.42.08,5.11-.25.58-.13,1.14-.13,1.72-.05,1.75.25,3.49.48,5.24.71,2.45.33,4.38,1.54,5.87,3.47,1.62,2.07,2.63,4.4,2.99,7.01.05.3.08.58.08.89.08.3.08.58.08.86ZM190.79,72.12c-.03,1.59.25,2.86.91,4.05,1.09,1.97,3.16,2.99,5.39,2.66,2.05-.3,3.77-1.97,4.07-3.97.23-1.49.35-2.99.18-4.5-.18-1.62-.71-3.11-1.75-4.4-1.37-1.67-3.42-2.1-5.31-1.09-1.67.89-2.71,2.3-3.16,4.12-.28,1.11-.28,2.25-.33,3.14h0Z"></path><path class="cls-1" d="M243.88,76.55c-.03.08-.05.15-.08.23-.13,1.37-.61,2.66-1.21,3.87-.71,1.39-1.92,2.23-3.42,2.63-1.01.28-2.05.46-3.09.68-.86.18-1.7.43-2.45.89-.43.25-.89.33-1.37.38-1.04.1-2.07.18-3.11.25-.66.05-1.32.13-1.97.18-.81.05-1.64-.1-2.4-.38-.96-.35-1.97-.58-2.99-.81-1.42-.3-2.68-.94-3.75-1.92-.56-.53-.99-1.11-1.19-1.87-.23-.96.08-1.85.86-2.4.43-.3.91-.51,1.42-.61,1.11-.25,2.25-.33,3.39-.35.46,0,.94-.03,1.39-.05.33,0,.66.03.94.2.48.3.96.63,1.42.96.18.13.35.3.53.48,1.44,1.29,3.11,1.7,4.98,1.34.4-.08.81-.18,1.19-.3.61-.2,1.11-.56,1.44-1.11.66-1.06.25-2.28-.94-2.66-1.19-.4-2.35-.86-3.47-1.42-.73-.35-1.49-.73-2.23-1.11-.51-.25-1.04-.4-1.57-.43-.99-.05-1.97-.08-2.96-.08-.91,0-1.8,0-2.66-.38-1.59-.71-2.66-1.9-3.34-3.47-1.14-2.61-.76-5.95,1.9-8.4,1.72-1.57,3.72-2.58,6.02-2.88,1.01-.13,2.05-.23,3.06-.25,1.54-.05,3.09-.05,4.66,0,2.2.08,4.28.58,6.17,1.77.3.18.61.4.91.61.81.58,1.29,1.42,1.49,2.38.2.91-.13,1.59-.99,1.95-.46.2-.96.3-1.44.43-.56.15-1.16.25-1.75.38-1.06.25-2.07.15-3.06-.23-.48-.18-.94-.38-1.39-.61-.99-.46-2.02-.86-3.06-1.19-1.37-.4-2.48.08-3.42,1.01-.71.71-.61,1.67.2,2.28.35.25.78.46,1.19.61,1.7.66,3.44,1.14,5.26,1.29.33.03.68.05,1.01.05,1.47,0,2.78.38,4.02,1.19.68.46,1.44.81,2.18,1.19.68.35,1.34.71,1.92,1.24.86.81,1.49,1.77,1.57,2.99,0,.08.05.15.08.25v1.19l.08.03Z"></path></g><g><path class="cls-1" d="M244.44,58.75c-1.88,0-3.41-1.51-3.41-3.36s1.53-3.36,3.41-3.36,3.41,1.51,3.41,3.36-1.53,3.36-3.41,3.36ZM244.44,52.53c-1.61,0-2.91,1.28-2.91,2.86s1.31,2.86,2.91,2.86,2.91-1.28,2.91-2.86-1.31-2.86-2.91-2.86Z"></path><path class="cls-1" d="M244.26,55.11c.2,0,.33-.05.43-.1.08-.08.13-.2.13-.35,0-.18-.05-.28-.13-.35s-.23-.1-.43-.1h-.4v.94l.4-.03M243.86,55.75v1.37h-.94v-3.62h1.44c.48,0,.84.08,1.06.25.23.15.33.4.33.76,0,.23-.05.43-.18.58-.13.15-.3.28-.53.33.13.03.25.1.35.2s.2.25.3.46l.51,1.04h-1.01l-.46-.91c-.1-.18-.18-.3-.28-.38-.1-.08-.23-.1-.38-.1h-.23"></path></g></g></svg> 