<?xml version="1.0" encoding="utf-8"?>
<!-- Generator: Adobe Illustrator 26.0.3, SVG Export Plug-In . SVG Version: 6.00 Build 0)  -->
<svg version="1.1" id="Capa_1" xmlns="http://www.w3.org/2000/svg" xmlns:xlink="http://www.w3.org/1999/xlink" x="0px" y="0px"
	 viewBox="0 0 2687.1 1080" style="enable-background:new 0 0 2687.1 1080;" xml:space="preserve">
<style type="text/css">
	.st0{fill:#FFFFFF;}
	.st1{fill:#3584FA;}
</style>
<g>
	<polygon class="st0" points="490,698.3 399,400.3 456.1,400.3 518.4,604.8 581.3,400.5 630.9,400.5 693.8,604.8 756.1,400.5 
		812.9,400.5 721.9,698.3 675.6,698.3 606.1,482.6 536.3,698.3 	"/>
	<polygon class="st0" points="1201.6,698.3 1201.6,689.2 1370.6,452 1217,452 1217,400.5 1462.2,400.5 1462.2,409.8 1293.4,646.7 
		1453.9,646.7 1453.9,698.3 	"/>
	<g>
		<path class="st0" d="M1086.7,431.9c-25.5-26.6-60.4-40.7-101.4-40.7c-86.8,0-152.2,68.1-152.2,158.4
			c0,90.3,65.4,158.4,152.2,158.4c40.9,0,75.7-13.9,101.4-40.4v34.2h58.3V397.4h-58.3V431.9z M991.3,653.2
			c-57.3,0-98.8-43.5-98.8-103.5c0-59.8,41.6-103.2,98.8-103.2c57.1,0,98.5,43.4,98.5,103.2C1089.9,609.6,1048.4,653.2,991.3,653.2z
			"/>
		<path class="st0" d="M1733.8,397.4V569c0,53.5-29.4,84.1-80.7,84.1c-51.5,0-81-30.7-81-84.1V397.4h-58.3v176.3
			c0,99.1,75.1,134.3,139.3,134.3c64.1,0,139-35.2,139-134.3V397.4H1733.8z"/>
	</g>
	<path class="st0" d="M1864.1,698.3V320.6h51.6v194.8h6.9v182.8L1864.1,698.3L1864.1,698.3z M2073.4,698.3V551.9
		c0-11.6-1-23.5-2.9-35.7c-1.9-12.2-5.6-23.6-11-34.1c-5.4-10.5-13-18.9-22.9-25.4s-22.7-9.7-38.5-9.7c-10.3,0-20.1,1.7-29.2,5.1
		c-9.2,3.4-17.2,8.9-24.1,16.4c-6.9,7.5-12.3,17.5-16.3,29.8c-3.9,12.3-5.9,27.3-5.9,45l-35.8-13.5c0-27,5.1-50.9,15.2-71.6
		c10.1-20.7,24.6-36.8,43.6-48.4c18.9-11.6,41.8-17.4,68.7-17.4c20.6,0,37.9,3.3,51.9,9.9c14,6.6,25.3,15.3,34,26.1
		c8.7,10.8,15.4,22.5,20,35.2c4.6,12.7,7.7,25.1,9.4,37.2c1.7,12.1,2.5,22.8,2.5,32v165.5L2073.4,698.3L2073.4,698.3z"/>
	<circle class="st1" cx="2243.1" cy="657.2" r="47"/>
</g>
</svg>
